<svg xmlns="http://www.w3.org/2000/svg" xmlns:xlink="http://www.w3.org/1999/xlink" viewBox="0 0 264.27 211.35"><defs><style>.cls-1{isolation:isolate;}.cls-2{fill:#6dbff4;}.cls-3{fill:#a8d3f4;}.cls-4{fill:#6893e0;}.cls-5{fill:#81aff4;}.cls-30,.cls-42,.cls-6{fill:#fff;}.cls-7{fill:#dfe6ff;}.cls-31,.cls-8{fill:none;stroke:#fff;stroke-miterlimit:10;}.cls-8{stroke-width:0.5px;}.cls-9{fill:url(#linear-gradient);}.cls-10{fill:#5ec1ca;}.cls-11{fill:#a6d0f4;}.cls-12{fill:#5ba6d9;}.cls-13{fill:#3e4551;}.cls-14{fill:#354c6d;}.cls-15{fill:#355390;}.cls-16{fill:#38b1a7;}.cls-17{fill:#f69983;}.cls-18{fill:#f4796f;}.cls-19{fill:#fba894;}.cls-20{fill:#fb8585;}.cls-21{fill:#505e83;}.cls-22{fill:#a0ced9;}.cls-23{fill:url(#linear-gradient-2);}.cls-24{fill:#5ec1ef;}.cls-25{fill:#6e8ec5;}.cls-26{fill:url(#linear-gradient-3);}.cls-27{fill:url(#linear-gradient-4);}.cls-28{fill:url(#linear-gradient-5);}.cls-29{fill:url(#linear-gradient-6);}.cls-30{mix-blend-mode:soft-light;}.cls-31{stroke-width:3px;}.cls-32{fill:#94afe0;}.cls-33{fill:url(#linear-gradient-7);}.cls-34{fill:#cf7aca;}.cls-35{fill:#a6c1ef;}.cls-36{fill:#8ea8e5;}.cls-37{fill:url(#linear-gradient-8);}.cls-38{fill:#95bff4;}.cls-39{fill:url(#linear-gradient-9);}.cls-40{fill:url(#linear-gradient-10);}.cls-41{fill:url(#linear-gradient-11);}.cls-42{opacity:0.64;}.cls-43{fill:#acc5ff;}</style><linearGradient id="linear-gradient" x1="75.76" y1="55.89" x2="75.76" y2="83.53" gradientUnits="userSpaceOnUse"><stop offset="0" stop-color="#fff"/><stop offset="1" stop-color="#cff"/></linearGradient><linearGradient id="linear-gradient-2" x1="226.99" y1="77.11" x2="221.8" y2="102.23" xlink:href="#linear-gradient"/><linearGradient id="linear-gradient-3" x1="238.91" y1="97.46" x2="238.7" y2="106.78" xlink:href="#linear-gradient"/><linearGradient id="linear-gradient-4" x1="41.61" y1="97.46" x2="41.4" y2="106.78" xlink:href="#linear-gradient"/><linearGradient id="linear-gradient-5" x1="85.84" y1="100.68" x2="85.7" y2="106.8" xlink:href="#linear-gradient"/><linearGradient id="linear-gradient-6" x1="186.62" y1="89.34" x2="180.9" y2="118.39" xlink:href="#linear-gradient"/><linearGradient id="linear-gradient-7" x1="22.56" y1="79.71" x2="22.56" y2="108.77" xlink:href="#linear-gradient"/><linearGradient id="linear-gradient-8" x1="97.38" y1="62.09" x2="97.38" y2="89.73" xlink:href="#linear-gradient"/><linearGradient id="linear-gradient-9" x1="57.8" y1="27.78" x2="57.8" y2="41.98" xlink:href="#linear-gradient"/><linearGradient id="linear-gradient-10" x1="68.4" y1="27.78" x2="68.4" y2="41.98" xlink:href="#linear-gradient"/><linearGradient id="linear-gradient-11" x1="82.32" y1="22.09" x2="76.6" y2="51.13" xlink:href="#linear-gradient"/></defs><title>lab</title><g class="cls-1"><g id="OBJECTS"><rect class="cls-2" x="144.29" y="5.41" width="119.98" height="73.35"/><rect class="cls-3" x="162.25" y="-22.99" width="77.16" height="123.8" transform="translate(239.37 -162.25) rotate(90)"/><rect class="cls-4" x="140.47" y="1.91" width="119.98" height="73.35"/><rect class="cls-5" x="141.96" y="4.03" width="117.01" height="71.23"/><rect class="cls-6" x="228.66" y="10.71" width="22.58" height="32.43"/><rect class="cls-7" x="231.2" y="13.88" width="16.69" height="6.68"/><rect class="cls-5" x="231.2" y="22.47" width="16.69" height="1.91"/><rect class="cls-5" x="231.2" y="25.54" width="16.69" height="1.91"/><rect class="cls-5" x="231.2" y="28.62" width="16.69" height="1.91"/><rect class="cls-7" x="231.2" y="32.17" width="7.39" height="7.87"/><rect class="cls-7" x="239.71" y="32.09" width="8.11" height="1.19"/><rect class="cls-7" x="239.71" y="34.63" width="8.11" height="1.19"/><rect class="cls-6" x="240.74" y="46" width="10.33" height="13.67"/><rect class="cls-7" x="241.8" y="47.7" width="8.16" height="6.15"/><rect class="cls-8" x="190.6" y="10.6" width="35.19" height="17.81"/><rect class="cls-6" x="192.72" y="13.25" width="3.92" height="0.85"/><rect class="cls-6" x="192.72" y="15.4" width="12.72" height="0.85"/><rect class="cls-6" x="192.72" y="17.2" width="12.72" height="0.85"/><rect class="cls-6" x="192.72" y="19" width="12.72" height="0.85"/><rect class="cls-6" x="192.72" y="20.8" width="7.23" height="0.85"/><rect class="cls-4" x="192.8" y="23.11" width="10.33" height="3.58"/><rect class="cls-7" x="207.35" y="13.17" width="16.06" height="7.47"/><rect class="cls-7" x="207.59" y="23.74" width="1.75" height="1.75"/><rect class="cls-7" x="211.88" y="23.74" width="1.75" height="1.75"/><rect class="cls-7" x="216.18" y="23.74" width="1.75" height="1.75"/><rect class="cls-7" x="220.47" y="23.74" width="1.75" height="1.75"/><rect class="cls-6" x="190.18" y="32.65" width="12.4" height="2.54"/><polyline class="cls-8" points="201.89 34.5 205.97 38.58 225.05 38.58"/><rect class="cls-6" x="190.18" y="41.65" width="12.4" height="2.54"/><polyline class="cls-8" points="201.89 43.51 205.97 47.59 225.05 47.59"/><rect class="cls-6" x="157.11" y="12.14" width="2.94" height="0.85"/><rect class="cls-6" x="157.11" y="14.28" width="9.54" height="0.85"/><rect class="cls-6" x="157.11" y="16.08" width="9.54" height="0.85"/><rect class="cls-6" x="157.11" y="17.89" width="9.54" height="0.85"/><rect class="cls-6" x="157.11" y="19.69" width="5.43" height="0.85"/><rect class="cls-4" x="169.35" y="12.3" width="16.38" height="9.06"/><path class="cls-6" d="M176.87,35.93h-.37V33.1a3,3,0,0,0-2.95-3l-.08,0a3.36,3.36,0,0,1-3.35-3.36V24h.38v2.83a3,3,0,0,0,2.94,3l.08,0a3.36,3.36,0,0,1,3.35,3.36Z" transform="translate(-0.37 -0.33)"/><path class="cls-6" d="M170.5,35.93h-.38V33.1a3.36,3.36,0,0,1,3.35-3.36l.08,0a3,3,0,0,0,2.95-3V24h.37v2.83a3.36,3.36,0,0,1-3.35,3.36l-.08,0a3,3,0,0,0-2.94,3Z" transform="translate(-0.37 -0.33)"/><rect class="cls-4" x="170.89" y="24.14" width="4.44" height="0.61"/><rect class="cls-4" x="170.89" y="25.41" width="4.44" height="0.61"/><rect class="cls-4" x="170.89" y="26.69" width="4.44" height="0.61"/><rect class="cls-4" x="170.89" y="31.7" width="4.44" height="0.61"/><rect class="cls-4" x="170.89" y="32.97" width="4.44" height="0.61"/><rect class="cls-4" x="170.89" y="34.25" width="4.44" height="0.61"/><rect class="cls-4" x="179.85" y="23.58" width="5.41" height="5.41" rx="1" ry="1"/><rect class="cls-7" x="179.85" y="32.8" width="5.41" height="5.41" rx="1" ry="1"/><rect class="cls-7" x="179.85" y="42.03" width="5.41" height="5.41" rx="1" ry="1"/><path class="cls-6" d="M135.8,46.55s4.66,4.62-4,17-16.53,21.58-16.53,21.58L106,78.46s12.56-26.26,16.34-30.68S133.72,44.14,135.8,46.55Z" transform="translate(-0.37 -0.33)"/><path class="cls-9" d="M75.76,75.93h0a2.23,2.23,0,0,1-2.23-2.23V55.89H78V73.7A2.22,2.22,0,0,1,75.76,75.93Z" transform="translate(-0.37 -0.33)"/><path class="cls-10" d="M75.76,75.15h0a1.54,1.54,0,0,1-1.55-1.55V61.2h3.1V73.6A1.55,1.55,0,0,1,75.76,75.15Z" transform="translate(-0.37 -0.33)"/><rect class="cls-11" x="73.17" y="55.57" width="4.45" height="1.06"/><path class="cls-6" d="M77.79,56.5h-4.1a.51.51,0,0,1-.51-.51h0a.51.51,0,0,1,.51-.52h4.1a.51.51,0,0,1,.51.52h0A.51.51,0,0,1,77.79,56.5Z" transform="translate(-0.37 -0.33)"/><path class="cls-12" d="M113.92,172.24s24.16-5.4,72.81,3.18c0,0-29.89-82.67-31.16-82.67S119,94.34,119,94.34Z" transform="translate(-0.37 -0.33)"/><path class="cls-13" d="M131.81,200.43s1.21,9.82,1.21,10.79H114.84s-4.48,0,1.82-3.76c2.9-1.73,6.91-1.7,8.12-4.12a15.78,15.78,0,0,0,1.45-3.76Z" transform="translate(-0.37 -0.33)"/><path class="cls-14" d="M121.32,99.86s.73,76.83,3.64,100.59l7.64.36s7.63-83.74,7.87-94.65,0-11.63,0-11.63Z" transform="translate(-0.37 -0.33)"/><path class="cls-13" d="M156.49,211.35h13.43c-.07-4.24-2.36-12.72-2.36-12.72l-5.27,1.27a7.75,7.75,0,0,1-2,6A22.8,22.8,0,0,0,156.49,211.35Z" transform="translate(-0.37 -0.33)"/><path class="cls-15" d="M158.17,98.65l10.42,101.8h-7.51l-14.55-54.54c-1.94-7.27-16-46.78-16-46.78Z" transform="translate(-0.37 -0.33)"/><path class="cls-15" d="M121.32,100.47s.37,9.09,15.09,8.18l3.82-10.55Z" transform="translate(-0.37 -0.33)"/><path class="cls-16" d="M134.17,40.23s-7.51,3.64-10.18,8.25-9.21,29.08-3.15,53c3.39,1.93,28.48,3.63,38.66-2.43,1.45-2.66,3.27-26.3,5.94-38.42s2.18-19.14-2.43-20.36-13.57-3.15-13.57-3.15Z" transform="translate(-0.37 -0.33)"/><path class="cls-17" d="M143.14,26.3l-8.36,13.09s-.37,6,7.27,3.27a36.23,36.23,0,0,0,8.54-4.91L146.41,21Z" transform="translate(-0.37 -0.33)"/><path class="cls-18" d="M136.29,37a17.93,17.93,0,0,0,12.41-6.85l-1-4-4.6.12Z" transform="translate(-0.37 -0.33)"/><path class="cls-19" d="M132.49,15.32S130.61,26.89,133,33c1.87,2.73,10.21.34,14.29-4.08S152.57,17,150.7,12.42s-10.55-4.76-13.28-3.74S132.66,13.44,132.49,15.32Z" transform="translate(-0.37 -0.33)"/><path class="cls-19" d="M147,24.47s2.75-3,3.87-.75-4.62,5.49-4.74,3.86A5.55,5.55,0,0,1,147,24.47Z" transform="translate(-0.37 -0.33)"/><path class="cls-20" d="M131.8,24.12h0" transform="translate(-0.37 -0.33)"/><path class="cls-21" d="M146,13.42s-8.43,3.18-13.83.79c.63-4.13,6-8.11,13.83-6.2,4.29,1.11,5.09,3.66,5.09,3.66s1.59,0,2.06,3.34-2.59,8.34-2.59,8.34-2-.23-3,2.31l-1.27-.16s.69-2.17,1.32-3.92S145.24,18.5,146,13.42Z" transform="translate(-0.37 -0.33)"/><path class="cls-6" d="M150.43,37.27s-7.05,74.45,10.76,140.59l29.25-1.27S170.51,113,167.55,96s-3-55.54-3-55.54S155.94,37.49,150.43,37.27Z" transform="translate(-0.37 -0.33)"/><path class="cls-6" d="M135.33,38.38S114.55,102.93,119,175.74h-9.54s1.08-103.81,14.21-128.85A107.3,107.3,0,0,1,135.33,38.38Z" transform="translate(-0.37 -0.33)"/><path class="cls-6" d="M163.61,40.27s6.55.48,8,15.51,1.45,27.14,1.45,27.14l-11.39,1S154.16,55.78,154.16,50,160.46,39.78,163.61,40.27Z" transform="translate(-0.37 -0.33)"/><path class="cls-7" d="M149.17,84.92l5.92-18.4-4-6.36,4.29-2.7c-.68-5.86-3.81-17.09-4.69-20.18h-.29A455.42,455.42,0,0,0,149.17,84.92Z" transform="translate(-0.37 -0.33)"/><path class="cls-7" d="M125.57,55.87l3.29,3.07-4.45,5.41L125,82.42c4.62-25,10.29-44,10.29-44S126.32,54.06,125.57,55.87Z" transform="translate(-0.37 -0.33)"/><path class="cls-22" d="M166.21,85.1,149.1,77.59s8.48,11.45,17.55,12C166.49,88.13,166.35,86.64,166.21,85.1Z" transform="translate(-0.37 -0.33)"/><path class="cls-19" d="M143.15,66.62s28.11,8,29.57,13.57-5.34,9-10.91,6.06S141.21,70,141.21,70Z" transform="translate(-0.37 -0.33)"/><path class="cls-6" d="M143.17,72.72l3.18-6.36s19.24,7.15,22.57,9.54,5.09,4.45,3.66,8.58S164,88.78,160,86.07,143.17,72.72,143.17,72.72Z" transform="translate(-0.37 -0.33)"/><path class="cls-7" d="M162,48.13s-1.91,12.51-.85,23.32A56.22,56.22,0,0,1,162,48.13Z" transform="translate(-0.37 -0.33)"/><path class="cls-7" d="M161.45,72.4S167,74.94,169.24,80A10.06,10.06,0,0,0,161.45,72.4Z" transform="translate(-0.37 -0.33)"/><path class="cls-19" d="M84.43,68.1s28.11,8,29.57,13.57-5.33,9-10.91,6.06-20.6-16.24-20.6-16.24Z" transform="translate(-0.37 -0.33)"/><path class="cls-6" d="M85.09,74.63l3.18-6.36s19.23,7.15,22.57,9.54,5.09,4.45,3.66,8.58-8.59,4.29-12.56,1.59S85.09,74.63,85.09,74.63Z" transform="translate(-0.37 -0.33)"/><path class="cls-19" d="M84.43,68.1l-3.74-5.56-7.16-.79s.84,3.66,3.5,3.66c0,0-.16,4.45,1.11,6.28l4.35-.2Z" transform="translate(-0.37 -0.33)"/><path class="cls-19" d="M140,57.52A4.88,4.88,0,0,1,141.39,60,14.61,14.61,0,0,1,141,63.8L138.31,61Z" transform="translate(-0.37 -0.33)"/><rect class="cls-7" x="122.82" y="51.31" width="16.96" height="24.38" transform="translate(7.28 -14.17) rotate(6.21)"/><path class="cls-19" d="M143.15,66.62,140.1,60l-6.79-.85a3.43,3.43,0,0,0,2.44,4.56s-1,4.12,5.46,6.3Z" transform="translate(-0.37 -0.33)"/><path class="cls-23" d="M225.14,88.15V73.35h-4v14.8a7.94,7.94,0,1,0,4,0Z" transform="translate(-0.37 -0.33)"/><rect class="cls-11" x="220.74" y="73.03" width="4.03" height="1.27"/><path class="cls-6" d="M225.56,74.2h-4.87a.85.85,0,0,1-.85-.85h0a.85.85,0,0,1,.85-.84h4.87a.85.85,0,0,1,.85.84h0A.85.85,0,0,1,225.56,74.2Z" transform="translate(-0.37 -0.33)"/><path class="cls-24" d="M223.53,95.93a15.45,15.45,0,0,0-7-1,6.84,6.84,0,0,0-.07.91,6.68,6.68,0,1,0,13.36,0v0A7.49,7.49,0,0,1,223.53,95.93Z" transform="translate(-0.37 -0.33)"/><rect class="cls-25" x="217.51" y="102.81" width="10.81" height="1.59"/><rect class="cls-25" x="218.93" y="105.09" width="7.98" height="0.79"/><rect class="cls-25" x="218.92" y="104.03" width="0.72" height="3.1"/><rect class="cls-25" x="226.2" y="104.03" width="0.72" height="3.1"/><path class="cls-26" d="M242.9,100.33l.09,0,1.51-1.51H233.17l1.51,1.51h0a4.52,4.52,0,0,0-3.75,4.45v4h15.54v-4A4.53,4.53,0,0,0,242.9,100.33Z" transform="translate(-0.37 -0.33)"/><rect class="cls-10" x="231.6" y="104.19" width="13.26" height="3.82"/><path class="cls-27" d="M45.6,100.33l.09,0,1.5-1.51H35.87l1.51,1.51h0a4.52,4.52,0,0,0-3.75,4.45v4H49.17v-4A4.53,4.53,0,0,0,45.6,100.33Z" transform="translate(-0.37 -0.33)"/><rect class="cls-10" x="34.29" y="104.19" width="13.26" height="3.82"/><path class="cls-28" d="M88.46,102.56l.06,0,1-1H82.07l1,1h0a3,3,0,0,0-2.46,2.93v2.6H90.81v-2.6A3,3,0,0,0,88.46,102.56Z" transform="translate(-0.37 -0.33)"/><rect class="cls-10" x="80.91" y="104.99" width="8.71" height="2.51"/><polygon class="cls-29" points="178.42 90.2 176.35 90.2 178.42 92.27 178.42 108 193.04 108 193.04 90.2 178.42 90.2"/><rect class="cls-24" x="179.69" y="99" width="11.76" height="7.74"/><path class="cls-30" d="M181.59,105.68h0a.48.48,0,0,1-.48-.47v-12a.48.48,0,0,1,.48-.48h0a.48.48,0,0,1,.48.48v12A.48.48,0,0,1,181.59,105.68Z" transform="translate(-0.37 -0.33)"/><rect class="cls-25" x="144.55" y="103.13" width="31.8" height="4.88"/><rect class="cls-6" x="142.8" y="104.4" width="31.8" height="4.88"/><rect class="cls-11" x="147.89" y="102.28" width="26.71" height="1.17"/><path class="cls-31" d="M41,100.49V89.61a2.37,2.37,0,0,1,.71-1.69L58.27,71.34a2.39,2.39,0,0,1,3.39,0h0a2.39,2.39,0,0,1,0,3.39L55.79,80.6a2.4,2.4,0,0,0-.7,1.7v1.59a2.4,2.4,0,0,0,2.4,2.4H68.41a2.39,2.39,0,0,1,1.69.7l2.73,2.73a2.4,2.4,0,0,0,1.7.7h3.84a2.38,2.38,0,0,1,1.69.7l4.59,4.59a2.39,2.39,0,0,1,.7,1.69v2" transform="translate(-0.37 -0.33)"/><rect class="cls-32" x="61.3" y="88.08" width="1.06" height="19.82"/><rect class="cls-25" x="60.45" y="84.47" width="2.86" height="3.82"/><rect class="cls-32" x="75.29" y="91.44" width="1.06" height="16.46"/><rect class="cls-25" x="74.44" y="88.45" width="2.86" height="3.17"/><path class="cls-33" d="M32.33,105.62l-7-8.91v-20H19.84v20l-7,8.91a.83.83,0,0,0,.65,1.35H31.68A.83.83,0,0,0,32.33,105.62Z" transform="translate(-0.37 -0.33)"/><rect class="cls-11" x="19.47" y="76.41" width="5.45" height="1.73"/><rect class="cls-6" x="18.9" y="75.55" width="6.6" height="1.84"/><path class="cls-31" d="M185.78,85.86V60.32a5.62,5.62,0,0,1,5.61-5.62h0A5.62,5.62,0,0,1,197,60.32V77.91a5.62,5.62,0,0,0,5.62,5.62h.85a5.62,5.62,0,0,0,5.62-5.62V60.11a5.61,5.61,0,0,1,5.61-5.62h3a5.62,5.62,0,0,1,5.62,5.62v8.58" transform="translate(-0.37 -0.33)"/><rect class="cls-32" x="201.84" y="85.06" width="1.06" height="22.84"/><rect class="cls-25" x="200.99" y="81.45" width="2.86" height="3.82"/><path class="cls-34" d="M29.94,104.79l-2.84-3.58c-2,1.62-4.14,1.19-6.91.13a5.25,5.25,0,0,0-1.89-.42l-3.07,3.87a.64.64,0,0,0,.5,1H29.45A.64.64,0,0,0,29.94,104.79Z" transform="translate(-0.37 -0.33)"/><rect class="cls-25" x="101.47" y="63.97" width="0.95" height="40.54"/><rect class="cls-32" x="97.41" y="103.79" width="9.7" height="3.58"/><rect class="cls-25" x="94.47" y="105.14" width="15.58" height="2.23"/><rect class="cls-11" x="214.17" y="122.42" width="8.9" height="10.6"/><rect class="cls-25" x="208.97" y="114.05" width="20.03" height="6.36"/><rect class="cls-35" x="213.64" y="120.41" width="10.71" height="3.92"/><polygon class="cls-25" points="213.63 124.38 198.69 211.35 200.18 211.35 217.21 124.38 213.63 124.38"/><polygon class="cls-25" points="224.32 124.38 239.26 211.35 237.78 211.35 220.74 124.38 224.32 124.38"/><rect class="cls-25" x="202.3" y="192.59" width="33.07" height="1.59"/><rect class="cls-11" x="28.05" y="122.42" width="8.9" height="10.6"/><rect class="cls-25" x="22.85" y="114.05" width="20.03" height="6.36"/><rect class="cls-35" x="27.52" y="120.41" width="10.71" height="3.92"/><polygon class="cls-25" points="27.51 124.38 12.57 211.35 14.06 211.35 31.09 124.38 27.51 124.38"/><polygon class="cls-25" points="38.2 124.38 53.14 211.35 51.66 211.35 34.62 124.38 38.2 124.38"/><rect class="cls-25" x="16.18" y="192.59" width="33.07" height="1.59"/><rect class="cls-11" y="106.73" width="251.83" height="3.82"/><rect class="cls-11" x="9.22" y="110.55" width="233.39" height="4.77"/><rect class="cls-36" x="9.22" y="110.55" width="233.39" height="0.95"/><path class="cls-37" d="M97.38,82.13h0a2.23,2.23,0,0,1-2.23-2.23V62.09h4.46V79.9A2.23,2.23,0,0,1,97.38,82.13Z" transform="translate(-0.37 -0.33)"/><path class="cls-10" d="M97.38,81.35h0a1.54,1.54,0,0,1-1.55-1.55V67.4h3.1V79.8A1.54,1.54,0,0,1,97.38,81.35Z" transform="translate(-0.37 -0.33)"/><rect class="cls-11" x="94.79" y="61.77" width="4.45" height="1.06"/><path class="cls-6" d="M99.41,62.7h-4.1a.51.51,0,0,1-.51-.51h0a.51.51,0,0,1,.51-.52h4.1a.51.51,0,0,1,.51.52h0A.51.51,0,0,1,99.41,62.7Z" transform="translate(-0.37 -0.33)"/><rect class="cls-25" x="94.47" y="69.45" width="7.63" height="0.56"/><path class="cls-32" d="M103.74,70.18a1.51,1.51,0,1,1-1.51-1.52A1.52,1.52,0,0,1,103.74,70.18Z" transform="translate(-0.37 -0.33)"/><circle class="cls-25" cx="101.86" cy="69.85" r="0.72"/><rect class="cls-25" x="94.47" y="77.64" width="7.63" height="0.56"/><path class="cls-32" d="M103.74,78.36a1.51,1.51,0,1,1-1.51-1.51A1.51,1.51,0,0,1,103.74,78.36Z" transform="translate(-0.37 -0.33)"/><path class="cls-25" d="M103,78.36a.72.72,0,0,1-1.44,0,.72.72,0,0,1,1.44,0Z" transform="translate(-0.37 -0.33)"/><polygon class="cls-19" points="69.43 63.89 67.44 63.81 67.76 66.35 69.59 70.96 71.02 70.09 69.43 63.89"/><rect class="cls-38" x="68.34" y="-8.36" width="32.86" height="72.5" rx="7.54" ry="7.54" transform="translate(112.29 -57.21) rotate(90)"/><rect class="cls-3" x="67.39" y="-9.64" width="32.86" height="72.5" rx="7.54" ry="7.54" transform="translate(110.06 -57.53) rotate(90)"/><rect class="cls-5" x="49.11" y="11.77" width="68.68" height="29.04" rx="4.52" ry="4.52"/><path class="cls-4" d="M113,15.08H54.67A2.64,2.64,0,0,0,52,17.73V41.1l.31,0h63a3.16,3.16,0,0,0,.32,0V17.73A2.65,2.65,0,0,0,113,15.08Z" transform="translate(-0.37 -0.33)"/><path class="cls-39" d="M62.58,40.44l-3.45-4.36V26.32H56.47v9.76L53,40.44a.41.41,0,0,0,.33.66h8.91A.41.41,0,0,0,62.58,40.44Z" transform="translate(-0.37 -0.33)"/><rect class="cls-11" x="56.1" y="25.99" width="2.66" height="0.85"/><rect class="cls-6" x="55.82" y="25.57" width="3.22" height="0.9"/><path class="cls-34" d="M61.41,40,60,38.29c-1,.79-2,.58-3.38.06a2.6,2.6,0,0,0-.92-.21L54.22,40a.31.31,0,0,0,.24.5h6.71A.31.31,0,0,0,61.41,40Z" transform="translate(-0.37 -0.33)"/><path class="cls-40" d="M73.18,40.44l-3.45-4.36V26.32H67.07v9.76l-3.45,4.36a.41.41,0,0,0,.32.66h8.92A.41.41,0,0,0,73.18,40.44Z" transform="translate(-0.37 -0.33)"/><rect class="cls-11" x="66.7" y="25.99" width="2.66" height="0.85"/><rect class="cls-6" x="66.42" y="25.57" width="3.22" height="0.9"/><path class="cls-10" d="M72,40l-1.39-1.75c-1,.79-2,.58-3.38.06a2.6,2.6,0,0,0-.92-.21L64.82,40a.31.31,0,0,0,.24.5h6.71A.31.31,0,0,0,72,40Z" transform="translate(-0.37 -0.33)"/><polygon class="cls-41" points="74.12 22.95 72.05 22.95 74.12 25.01 74.12 40.75 88.75 40.75 88.75 22.95 74.12 22.95"/><rect class="cls-24" x="75.39" y="31.74" width="11.76" height="7.74"/><path class="cls-30" d="M77.3,38.43h0a.47.47,0,0,1-.48-.48V26a.47.47,0,0,1,.48-.48h0a.47.47,0,0,1,.47.48V38A.47.47,0,0,1,77.3,38.43Z" transform="translate(-0.37 -0.33)"/><path class="cls-42" d="M115.29,12.09H76.39v29h38.9a2.86,2.86,0,0,0,2.86-2.86V15A2.86,2.86,0,0,0,115.29,12.09Z" transform="translate(-0.37 -0.33)"/><polygon class="cls-42" points="82.88 40.81 90.72 40.81 103.34 11.77 95.5 11.77 82.88 40.81"/><rect class="cls-4" x="18.79" y="32.65" width="23.21" height="33.71"/><rect class="cls-6" x="22.93" y="37.26" width="4.56" height="0.85"/><rect class="cls-6" x="22.93" y="39.4" width="14.79" height="0.85"/><rect class="cls-43" x="22.93" y="41.2" width="14.79" height="0.85"/><rect class="cls-43" x="22.93" y="43.01" width="14.79" height="0.85"/><rect class="cls-43" x="22.93" y="44.81" width="8.41" height="0.85"/><polygon class="cls-8" points="26.22 48.44 24.08 48.44 23.01 50.29 24.08 52.15 26.22 52.15 27.29 50.29 26.22 48.44"/><polygon class="cls-8" points="30.83 53.05 28.69 53.05 27.63 54.9 28.69 56.76 30.83 56.76 31.9 54.9 30.83 53.05"/><rect class="cls-43" x="25.63" y="60.31" width="11.92" height="2.7" rx="0.88" ry="0.88"/></g></g></svg>